<?xml version="1.0" standalone="no"?>
<!DOCTYPE svg PUBLIC "-//W3C//DTD SVG 20010904//EN"
 "http://www.w3.org/TR/2001/REC-SVG-20010904/DTD/svg10.dtd">
<svg version="1.0" xmlns="http://www.w3.org/2000/svg"
 width="611.000000pt" height="611.000000pt" viewBox="0 0 611.000000 611.000000"
 preserveAspectRatio="xMidYMid meet">
<metadata>
Created by potrace 1.11, written by Peter Selinger 2001-2013
</metadata>
<g transform="translate(0.000000,611.000000) scale(0.100000,-0.100000)"
fill="#000000" stroke="none">
<path d="M7 6103 c-4 -3 -7 -984 -7 -2179 l0 -2172 23 -5 c12 -2 30 -8 40 -12
13 -6 17 -2 17 17 0 13 7 33 15 44 19 25 19 113 0 138 -20 26 -20 110 0 126
20 17 20 109 0 136 -19 25 -19 105 0 130 19 25 19 113 0 138 -19 25 -19 93 0
126 18 32 18 108 0 140 -19 33 -19 101 0 126 19 25 19 113 0 138 -19 25 -19
93 0 126 19 34 19 124 0 140 -20 16 -20 100 0 126 19 25 19 113 0 138 -19 25
-19 105 0 130 17 22 21 121 5 131 -22 14 -27 73 -14 165 8 60 9 101 3 111 -14
27 -10 102 6 123 19 26 19 115 0 140 -19 25 -19 97 0 122 19 25 19 114 0 140
-19 25 -19 103 0 128 19 26 19 115 0 140 -19 25 -19 97 0 122 19 25 19 114 0
140 -19 25 -19 105 0 130 19 25 19 113 0 138 -19 25 -19 97 0 122 19 24 19
111 0 144 -19 33 -19 101 0 126 19 25 19 113 0 138 -19 25 -19 97 0 122 8 10
15 29 15 41 0 12 6 24 13 26 6 3 -15 6 -49 6 -33 1 -64 -2 -67 -6z"/>
<path d="M153 6103 c-15 -6 -17 -49 -4 -58 20 -11 24 -92 7 -126 -17 -35 -22
-124 -7 -134 20 -11 24 -92 7 -126 -20 -40 -21 -118 -1 -155 19 -37 19 -81 0
-118 -19 -36 -19 -116 0 -152 19 -37 19 -65 0 -111 -18 -43 -20 -124 -3 -141
7 -7 12 -37 12 -67 0 -30 -5 -60 -12 -67 -17 -17 -15 -110 3 -144 8 -16 15
-40 15 -54 0 -14 -7 -38 -15 -54 -17 -31 -20 -131 -6 -141 20 -11 24 -92 7
-126 -21 -41 -21 -117 0 -158 11 -22 14 -45 10 -71 -6 -38 -6 -38 32 -43 20
-2 84 -4 142 -3 l105 1 3 27 c2 15 -2 36 -8 48 -14 25 1 86 30 123 31 39 47
97 42 155 l-4 53 -92 59 c-126 80 -136 88 -136 109 0 28 79 180 98 190 12 6
44 -1 107 -26 124 -47 154 -56 181 -49 30 8 94 91 94 122 0 28 65 104 89 104
9 0 32 15 50 33 l32 34 -39 49 c-109 138 -152 199 -152 214 0 26 145 160 174
160 3 0 51 -40 107 -89 l102 -90 33 26 c19 14 49 26 68 28 44 4 122 50 129 74
7 26 49 52 97 58 22 3 40 7 40 9 0 2 -21 68 -46 146 -34 106 -43 148 -36 163
12 26 187 99 208 87 9 -5 50 -71 92 -147 42 -76 82 -140 88 -142 6 -2 30 12
53 31 46 39 86 51 122 38 30 -12 101 10 140 42 15 11 34 26 42 31 13 8 18 36
23 138 4 77 12 134 20 145 10 13 32 18 105 22 119 6 132 0 142 -70 16 -116 30
-171 46 -180 24 -12 106 6 139 30 35 26 101 36 130 21 27 -14 105 2 140 29 13
11 35 20 49 20 17 0 28 9 40 35 21 44 45 51 103 30 50 -19 180 -36 253 -35 33
0 58 8 85 26 30 21 44 24 77 19 117 -18 144 -17 171 4 35 28 87 36 126 20 39
-16 106 -13 137 8 44 28 80 33 129 17 53 -18 99 -14 157 16 47 24 76 25 114 5
31 -15 118 -8 143 13 24 19 83 24 119 9 41 -17 100 -12 155 14 48 23 79 24
118 4 37 -19 83 -19 121 1 56 30 84 34 132 18 51 -18 108 -14 168 9 37 15
-180 16 -2545 16 -1422 0 -2591 -3 -2597 -6z"/>
<path d="M5302 6073 c-19 -8 -4 -23 24 -23 16 0 24 5 22 13 -5 13 -26 18 -46
10z"/>
<path d="M5052 6063 c-13 -3 -21 -10 -19 -16 5 -15 58 -20 77 -7 13 9 13 11 0
20 -16 10 -19 10 -58 3z"/>
<path d="M4775 6040 c-4 -7 -3 -16 3 -22 13 -13 84 1 79 16 -5 15 -73 20 -82
6z"/>
<path d="M5190 6041 c-19 -4 -49 -15 -67 -24 -39 -21 -70 -21 -103 -2 -36 21
-93 18 -140 -6 -31 -17 -50 -20 -87 -15 -139 19 -141 19 -176 -3 -36 -22 -121
-29 -132 -11 -11 18 -108 11 -140 -10 -32 -21 -119 -28 -130 -10 -12 20 -98
10 -140 -15 -44 -27 -84 -32 -118 -13 -29 15 -118 10 -138 -8 -30 -27 -84 -36
-123 -20 -38 16 -112 11 -136 -9 -32 -27 -88 -37 -127 -24 -50 17 -112 12
-141 -12 -14 -10 -31 -19 -38 -19 -19 0 -21 -6 -49 -144 -28 -143 -30 -166
-14 -166 14 0 262 -121 301 -147 l28 -17 52 59 c108 123 182 195 200 195 26 0
178 -117 178 -137 0 -12 -87 -165 -160 -280 -13 -21 -9 -27 81 -120 52 -54
110 -117 128 -140 19 -24 37 -43 41 -43 3 0 70 34 149 76 83 44 151 74 164 72
26 -4 127 -148 127 -181 0 -16 -36 -50 -130 -126 -72 -57 -130 -110 -130 -117
0 -8 15 -44 34 -81 35 -69 61 -131 92 -215 9 -27 22 -48 28 -48 6 0 84 9 174
21 140 19 165 20 176 8 16 -18 58 -193 50 -213 -6 -16 -25 -24 -212 -87 l-124
-42 7 -81 c3 -45 8 -130 9 -191 2 -60 8 -111 13 -112 4 -2 80 -18 166 -37 157
-34 194 -51 182 -83 -2 -6 -7 -40 -11 -75 -7 -58 -6 -62 9 -49 10 7 17 27 17
43 0 41 28 85 66 103 38 18 69 65 79 119 4 27 18 50 43 73 78 70 92 87 97 109
3 13 7 35 10 48 2 13 17 35 32 49 98 92 113 111 113 140 0 40 36 96 71 111 35
15 79 78 79 113 0 36 35 88 68 102 30 13 87 94 77 111 -11 18 43 99 71 106 29
8 74 69 74 102 0 13 5 33 11 45 16 31 61 77 75 77 18 0 60 71 67 115 5 30 16
49 48 78 l42 37 -26 48 c-25 46 -50 63 -68 45 -4 -4 -11 -35 -14 -68 -7 -66
-22 -85 -66 -85 -35 0 -50 19 -56 72 -8 81 -12 88 -38 88 -22 0 -30 -9 -51
-59 -14 -33 -32 -62 -40 -65 -18 -7 -80 19 -87 37 -3 7 1 38 9 67 18 71 18 77
-7 85 -17 6 -32 -3 -68 -39 -26 -25 -53 -46 -61 -46 -19 0 -70 47 -70 64 0 7
16 35 35 62 39 55 42 66 20 84 -13 11 -25 8 -68 -15 -29 -15 -62 -26 -73 -23
-10 2 -28 20 -39 41 l-20 38 26 22 c14 12 40 34 59 48 28 21 32 28 22 45 -9
16 -22 19 -84 19 l-73 0 -9 43 c-5 23 -6 45 -3 48 4 4 35 16 69 28 53 18 63
26 66 47 3 24 -1 27 -57 39 -76 16 -87 27 -75 83 l9 42 73 0 c54 0 75 4 82 15
15 24 13 28 -45 66 -35 24 -55 44 -55 56 0 23 37 78 52 78 6 0 37 -12 69 -26
48 -22 62 -24 74 -14 24 20 17 30 -22 30 -21 1 -49 7 -63 15 -27 16 -38 16
-90 6z"/>
<path d="M5645 6031 c-74 -29 -185 -109 -185 -131 0 -4 28 -13 62 -20 35 -6
76 -19 92 -27 26 -14 33 -14 62 0 17 9 48 19 68 22 41 8 40 6 26 60 -31 116
-47 129 -125 96z"/>
<path d="M5840 6034 c0 -8 4 -23 10 -33 5 -10 14 -47 19 -81 7 -43 16 -67 28
-74 10 -5 32 -24 50 -43 17 -18 35 -33 39 -33 5 0 28 19 51 42 51 50 59 100
21 135 -33 30 -96 67 -148 86 -57 21 -70 21 -70 1z"/>
<path d="M4504 6019 c-7 -12 12 -29 34 -29 19 0 52 19 52 30 0 14 -77 12 -86
-1z"/>
<path d="M110 5974 c0 -59 24 -55 28 4 2 33 0 42 -12 42 -12 0 -16 -11 -16
-46z"/>
<path d="M4240 5995 c-10 -12 -7 -15 15 -21 30 -7 79 11 70 26 -9 15 -71 12
-85 -5z"/>
<path d="M3988 5983 c-32 -8 -21 -33 15 -33 38 0 62 13 53 29 -7 11 -35 13
-68 4z"/>
<path d="M3718 5953 c-22 -6 -23 -19 -3 -27 24 -9 75 5 75 20 0 14 -34 17 -72
7z"/>
<path d="M3450 5920 c-11 -7 -12 -12 -4 -20 15 -15 84 -2 84 16 0 16 -56 19
-80 4z"/>
<path d="M3236 5893 c-12 -12 -5 -23 14 -23 11 0 20 4 20 9 0 11 -26 22 -34
14z"/>
<path d="M2917 5843 c-13 -12 -7 -23 13 -23 11 0 20 7 20 15 0 15 -21 21 -33
8z"/>
<path d="M2668 5803 c-10 -2 -18 -11 -18 -20 0 -12 7 -14 37 -8 44 8 53 13 53
26 0 9 -40 11 -72 2z"/>
<path d="M2818 5800 c-21 -4 -46 -14 -55 -22 -33 -28 -91 -41 -123 -28 -59 25
-173 -21 -157 -63 5 -13 20 -17 69 -17 35 0 119 -9 188 -20 69 -10 128 -16
131 -12 8 10 59 132 59 142 0 8 -56 31 -69 29 -3 -1 -23 -5 -43 -9z"/>
<path d="M5392 5763 c-20 -68 -13 -225 13 -260 0 -2 32 28 71 65 55 53 71 76
80 112 6 25 15 53 18 62 10 23 -38 47 -112 54 l-58 6 -12 -39z"/>
<path d="M112 5739 c-11 -30 -3 -69 14 -69 10 0 14 13 14 39 0 46 -16 63 -28
30z"/>
<path d="M5752 5733 c-31 -6 -64 -61 -56 -93 14 -59 68 -88 119 -64 44 20 62
63 45 104 -12 28 -57 62 -77 59 -4 -1 -18 -4 -31 -6z"/>
<path d="M6044 5688 c-23 -16 -33 -33 -41 -72 -5 -28 -13 -58 -17 -67 -6 -13
3 -21 39 -34 25 -10 48 -16 51 -13 2 3 3 51 2 107 l-3 101 -31 -22z"/>
<path d="M2134 5679 c-8 -14 11 -33 25 -25 6 4 11 14 11 22 0 16 -26 19 -36 3z"/>
<path d="M1893 5618 c-21 -10 -32 -28 -17 -28 19 0 84 24 84 32 0 11 -40 9
-67 -4z"/>
<path d="M5514 5474 c-30 -31 -54 -61 -54 -67 0 -14 67 -73 118 -104 42 -25
132 -57 139 -49 3 2 -2 24 -11 49 -8 25 -18 67 -22 93 -5 40 -14 55 -53 90
-25 24 -50 43 -54 44 -5 0 -33 -25 -63 -56z"/>
<path d="M110 5444 c0 -59 24 -55 28 4 2 33 0 42 -12 42 -12 0 -16 -11 -16
-46z"/>
<path d="M5831 5432 l-53 -15 6 -38 c8 -49 42 -129 56 -129 33 0 139 46 186
81 70 51 71 74 7 84 -26 4 -60 13 -75 21 -33 17 -57 16 -127 -4z"/>
<path d="M1403 5423 c-24 -16 -31 -43 -12 -43 20 0 79 41 73 51 -8 13 -36 10
-61 -8z"/>
<path d="M1308 5340 c-38 -21 -54 -37 -44 -47 5 -5 106 55 106 63 0 9 -27 2
-62 -16z"/>
<path d="M2280 5320 c-537 -62 -1007 -363 -1267 -812 -25 -43 -50 -78 -54 -78
-5 0 -9 -9 -9 -19 0 -11 -13 -49 -30 -85 -36 -80 -75 -203 -101 -316 -25 -107
-37 -422 -20 -555 33 -274 149 -556 324 -790 62 -83 281 -305 301 -305 6 0 17
-9 24 -20 7 -11 17 -20 22 -20 16 0 80 -44 81 -55 0 -9 139 -80 249 -128 71
-31 238 -79 345 -100 146 -28 444 -30 580 -3 288 56 509 152 721 313 17 12 36
23 42 23 7 0 12 6 12 14 0 8 8 16 18 18 24 4 216 217 287 318 193 274 296 603
296 950 0 166 -18 296 -62 453 -170 606 -686 1071 -1305 1177 -136 23 -345 33
-454 20z m57 -1176 c23 -23 25 -31 20 -83 -6 -71 -44 -148 -104 -212 -47 -50
-85 -63 -111 -37 -24 24 -13 54 38 97 28 24 64 66 80 94 53 93 35 117 -47 61
-101 -69 -241 -242 -298 -366 -13 -29 -32 -83 -42 -120 -20 -77 -13 -109 28
-140 24 -18 29 -18 62 -5 48 21 116 85 178 168 38 52 57 69 75 69 18 0 24 -5
24 -22 0 -64 -144 -238 -233 -282 -98 -49 -193 -29 -228 47 -36 79 -22 173 45
312 85 175 258 380 360 426 61 28 121 25 153 -7z m301 -66 c2 -18 -14 -57 -51
-120 -71 -123 -128 -228 -122 -228 2 0 20 9 39 21 21 12 48 19 68 17 49 -5 50
-44 4 -108 -19 -27 -47 -73 -62 -102 l-26 -53 32 30 c17 17 40 45 52 63 15 25
26 32 52 32 25 0 35 6 50 33 25 43 85 105 118 123 36 19 103 18 122 -2 20 -19
21 -112 2 -139 -16 -24 -56 -130 -56 -150 0 -19 31 -48 40 -38 4 4 13 26 20
48 31 99 124 253 157 261 62 16 68 -22 16 -103 -21 -32 -57 -105 -80 -163
l-42 -105 -57 -8 c-73 -11 -101 -3 -121 31 l-16 28 -23 -23 c-16 -16 -35 -23
-63 -23 -50 0 -71 26 -71 89 l0 45 -30 -42 c-39 -52 -87 -82 -133 -82 -57 0
-73 53 -42 140 15 43 15 43 -4 26 -11 -10 -39 -56 -62 -102 -41 -81 -45 -85
-74 -82 -24 2 -31 8 -33 30 -6 52 134 357 268 581 61 103 66 108 95 105 24 -2
31 -8 33 -30z m-1140 -90 c22 -22 12 -52 -53 -163 l-65 -110 38 -5 c31 -4 38
-9 40 -31 4 -34 -14 -47 -67 -51 l-44 -3 -61 -123 -61 -122 -35 2 c-32 3 -35
6 -38 36 -2 20 9 61 32 113 39 91 44 86 -55 59 -62 -18 -79 -10 -79 37 0 35 9
47 132 169 73 72 158 147 188 167 56 38 105 48 128 25z m1750 -39 c2 -17 -6
-37 -24 -58 -22 -27 -33 -32 -63 -29 -31 3 -36 7 -39 32 -5 43 41 88 88 84 29
-3 35 -7 38 -29z m468 -184 c12 -31 -9 -62 -82 -120 -41 -33 -89 -77 -105 -97
l-31 -38 55 0 c60 0 81 -14 75 -52 -3 -21 -8 -23 -68 -23 -42 -1 -77 -7 -98
-19 -18 -9 -48 -16 -65 -14 -68 6 -38 81 84 211 l71 77 -40 0 c-45 0 -65 18
-60 52 3 22 8 23 81 25 43 1 81 4 84 7 14 13 94 6 99 -9z m-288 -47 c2 -19 -8
-43 -37 -80 -59 -78 -95 -162 -86 -201 3 -18 9 -49 12 -69 5 -38 5 -38 -31
-38 -51 0 -70 39 -63 133 l4 69 -30 -49 c-17 -26 -37 -58 -44 -71 -11 -18 -22
-22 -46 -20 -50 5 -47 43 8 158 74 151 102 190 137 190 21 0 31 -6 35 -19 5
-18 7 -18 41 5 49 34 96 30 100 -8z"/>
<path d="M2801 3688 c-35 -36 -91 -141 -91 -170 0 -22 13 -23 30 -3 24 30 108
195 100 200 -4 3 -22 -10 -39 -27z"/>
<path d="M1265 3760 l-70 -70 35 6 c19 4 35 7 36 8 5 5 73 126 71 126 -1 0
-34 -32 -72 -70z"/>
<path d="M1175 5286 c-24 -20 -28 -27 -18 -37 11 -10 18 -9 40 8 30 22 42 53
21 53 -7 0 -26 -11 -43 -24z"/>
<path d="M112 5209 c-11 -30 -3 -69 14 -69 10 0 14 13 14 39 0 46 -16 63 -28
30z"/>
<path d="M6058 5170 c-22 -30 -23 -50 -3 -50 19 0 28 20 23 52 l-3 23 -17 -25z"/>
<path d="M6067 5078 c-5 -9 -6 -21 -3 -26 7 -12 -21 -38 -57 -51 -18 -7 -27
-18 -27 -33 0 -33 -43 -93 -77 -107 -31 -13 -73 -77 -73 -113 0 -34 -34 -84
-68 -99 -32 -14 -79 -81 -74 -104 6 -32 -49 -115 -77 -115 -21 0 -71 -72 -71
-102 0 -37 -34 -90 -69 -109 -41 -22 -81 -79 -81 -115 0 -36 -38 -91 -72 -105
-34 -14 -78 -80 -78 -118 0 -33 -51 -101 -76 -101 -21 0 -74 -85 -74 -119 0
-33 -51 -101 -76 -101 -22 0 -74 -79 -74 -112 0 -38 -31 -82 -68 -97 -30 -13
-79 -83 -74 -107 5 -26 -40 -93 -74 -109 -35 -17 -74 -73 -74 -109 0 -31 -40
-88 -72 -103 -37 -18 -78 -77 -78 -111 0 -25 8 -35 49 -61 27 -16 52 -39 56
-50 4 -13 -10 -51 -40 -111 l-46 -92 -42 7 c-23 4 -63 16 -89 26 l-46 18 -51
-49 c-28 -27 -51 -54 -51 -59 0 -6 12 -18 26 -28 25 -16 55 -46 166 -166 l45
-48 29 24 c16 13 81 52 144 85 63 34 114 67 113 74 0 7 -9 47 -18 88 -41 176
-44 194 -35 210 12 23 168 72 189 60 9 -4 43 -70 76 -145 l60 -137 35 7 c106
19 220 35 252 35 20 0 40 5 44 12 4 6 16 74 25 151 10 77 24 146 31 154 10 13
29 15 102 10 49 -3 94 -11 99 -16 6 -6 15 -75 19 -153 5 -79 11 -148 13 -154
2 -6 32 -14 67 -18 34 -4 108 -18 162 -32 54 -13 100 -24 102 -24 1 0 23 40
48 89 l46 90 -2 1243 c-2 684 -7 1235 -11 1226z"/>
<path d="M913 4980 c-34 -42 -27 -61 7 -20 17 19 30 38 30 42 0 15 -15 7 -37
-22z"/>
<path d="M5906 4945 c-18 -27 -21 -55 -7 -55 12 0 51 54 51 69 0 20 -27 11
-44 -14z"/>
<path d="M112 4918 c2 -24 8 -43 13 -43 6 0 11 19 13 43 3 33 0 42 -13 42 -13
0 -16 -9 -13 -42z"/>
<path d="M808 4908 c-22 -27 -23 -48 -4 -48 15 0 56 45 56 61 0 17 -35 8 -52
-13z"/>
<path d="M751 4783 c-31 -46 -39 -73 -22 -73 8 0 81 104 81 115 0 3 -6 5 -14
5 -8 0 -28 -21 -45 -47z"/>
<path d="M5755 4719 c-9 -17 -14 -33 -11 -36 11 -11 35 7 51 36 15 30 15 31
-4 31 -13 0 -27 -12 -36 -31z"/>
<path d="M115 4688 c-9 -23 -2 -83 10 -83 14 0 19 75 6 88 -7 7 -12 5 -16 -5z"/>
<path d="M5612 4508 c-29 -46 -10 -64 24 -23 13 17 23 34 21 39 -7 22 -26 15
-45 -16z"/>
<path d="M534 4425 c-9 -22 5 -38 22 -24 18 15 18 25 -1 33 -9 3 -18 -1 -21
-9z"/>
<path d="M110 4385 c0 -33 4 -45 15 -45 11 0 15 12 15 45 0 33 -4 45 -15 45
-11 0 -15 -12 -15 -45z"/>
<path d="M541 4342 c-14 -27 -24 -92 -14 -92 5 0 14 19 21 43 7 23 15 48 18
55 9 19 -14 14 -25 -6z"/>
<path d="M5466 4298 c-18 -25 -21 -58 -6 -58 10 0 50 58 50 73 0 16 -30 6 -44
-15z"/>
<path d="M470 4195 c-11 -34 -7 -55 10 -55 12 0 33 67 25 80 -11 19 -23 10
-35 -25z"/>
<path d="M115 4156 c-3 -9 -7 -22 -9 -28 -5 -20 13 -60 24 -53 13 8 13 82 0
90 -6 3 -12 -1 -15 -9z"/>
<path d="M5321 4084 c-24 -31 -27 -54 -6 -54 19 0 50 59 37 72 -6 6 -17 0 -31
-18z"/>
<path d="M475 4087 c-4 -10 -5 -21 -1 -24 10 -10 18 4 13 24 -4 17 -4 17 -12
0z"/>
<path d="M5171 3864 c-37 -47 -21 -75 19 -32 21 22 27 58 11 58 -5 0 -19 -12
-30 -26z"/>
<path d="M147 3783 c-13 -21 -9 -109 7 -138 20 -37 20 -66 1 -112 -20 -46 -19
-122 1 -162 11 -23 14 -45 9 -76 l-6 -44 108 38 c76 27 107 42 104 52 -13 54
-12 91 4 115 19 29 17 98 -5 150 -15 35 -7 96 16 119 18 18 20 17 -91 41 -115
24 -142 27 -148 17z"/>
<path d="M397 3693 c-4 -3 -7 -24 -7 -45 0 -50 25 -52 34 -3 9 45 -6 70 -27
48z"/>
<path d="M5020 3646 c-14 -16 -20 -31 -16 -42 6 -15 9 -15 31 6 24 22 34 60
17 60 -5 0 -19 -11 -32 -24z"/>
<path d="M115 3628 c-9 -23 -2 -83 10 -83 14 0 19 75 6 88 -7 7 -12 5 -16 -5z"/>
<path d="M422 3575 c-17 -37 -15 -95 4 -116 9 -10 18 -36 21 -58 3 -23 10 -41
16 -41 5 0 7 13 3 33 -4 17 -9 71 -13 120 -3 48 -9 87 -13 87 -4 0 -12 -11
-18 -25z"/>
<path d="M4892 3453 c-11 -4 -42 -54 -42 -68 0 -17 32 -1 51 26 21 30 17 51
-9 42z"/>
<path d="M396 3433 c-12 -12 -6 -70 8 -82 20 -17 28 1 20 44 -6 36 -16 49 -28
38z"/>
<path d="M111 3353 c-12 -24 -2 -73 15 -73 10 0 14 13 14 39 0 45 -14 61 -29
34z"/>
<path d="M4418 3264 c-3 -5 -13 -41 -21 -80 -9 -38 -32 -115 -52 -170 -19 -54
-35 -102 -35 -106 0 -4 25 -24 56 -43 51 -33 59 -35 85 -25 35 15 74 73 82
124 6 40 50 96 74 96 19 0 73 79 73 108 0 13 9 40 21 58 l21 34 -54 0 c-29 0
-96 3 -149 6 -53 4 -98 3 -101 -2z"/>
<path d="M4720 3208 c-28 -46 -7 -64 26 -23 13 17 24 36 24 43 0 24 -31 12
-50 -20z"/>
<path d="M107 3079 c-7 -26 10 -72 23 -64 16 10 13 85 -4 85 -7 0 -16 -9 -19
-21z"/>
<path d="M390 3024 c-41 -8 -111 -16 -154 -19 -49 -2 -82 -9 -88 -17 -13 -22
-9 -107 8 -140 17 -32 12 -112 -7 -123 -13 -9 -11 -119 3 -133 7 -7 12 -37 12
-67 0 -30 -5 -60 -12 -67 -17 -17 -15 -98 3 -141 19 -46 19 -74 0 -111 -20
-37 -19 -115 1 -155 17 -34 13 -115 -7 -126 -15 -10 -10 -99 7 -141 9 -22 14
-52 11 -71 -7 -42 3 -47 80 -45 64 3 88 -4 119 -35 26 -27 89 -42 147 -37 53
5 53 6 133 -51 22 -16 42 -20 94 -18 74 2 126 -11 139 -35 13 -23 103 -50 132
-40 35 13 84 1 119 -29 39 -33 105 -52 146 -43 38 9 102 -11 124 -38 21 -25
62 -35 135 -33 51 2 67 -2 95 -23 56 -41 80 -48 160 -50 74 -1 130 -21 130
-46 0 -6 9 -10 20 -10 13 0 20 7 20 19 0 11 6 22 13 25 8 3 6 9 -7 17 -32 20
-66 61 -66 79 0 23 -18 36 -55 43 -16 3 -52 12 -80 20 -116 34 -125 44 -107
111 9 36 8 44 -9 62 -11 12 -34 24 -50 28 -37 7 -86 54 -95 92 -8 33 -46 69
-94 91 -45 19 -90 62 -90 84 0 38 -20 25 -99 -61 -56 -61 -89 -90 -104 -90
-29 0 -171 111 -175 136 -1 10 31 75 73 143 41 68 75 129 75 136 0 16 -33 45
-51 45 -24 0 -69 53 -80 95 -14 50 -53 100 -87 114 -15 6 -34 16 -43 22 -13
10 -39 0 -143 -54 -69 -37 -137 -67 -150 -67 -18 0 -34 17 -73 78 -57 89 -64
104 -54 121 4 6 59 53 122 104 86 70 114 98 115 117 2 32 -45 117 -68 123 -26
7 -58 67 -58 109 0 45 -28 118 -44 117 -6 -1 -45 -7 -86 -15z"/>
<path d="M520 3035 c0 -17 31 -75 39 -75 14 0 14 23 -1 55 -9 21 -38 36 -38
20z"/>
<path d="M4582 3007 c-23 -25 -30 -61 -10 -55 6 2 21 16 32 31 27 37 9 57 -22
24z"/>
<path d="M545 2920 c-6 -10 19 -65 35 -75 19 -12 22 24 4 54 -19 32 -29 38
-39 21z"/>
<path d="M112 2819 c-11 -30 -3 -69 14 -69 10 0 14 13 14 39 0 46 -16 63 -28
30z"/>
<path d="M620 2826 c0 -13 43 -86 51 -86 4 0 -2 17 -12 37 -20 38 -39 63 -39
49z"/>
<path d="M4136 2585 c-9 -13 -16 -30 -16 -37 0 -8 -45 -58 -100 -113 -55 -55
-100 -105 -100 -111 0 -15 49 -56 60 -49 6 4 10 13 10 21 0 8 9 14 19 14 11 0
23 5 26 10 3 6 15 10 25 10 19 0 110 96 110 116 0 6 9 14 20 17 19 5 26 17 48
85 10 30 8 33 -18 47 -41 21 -65 19 -84 -10z"/>
<path d="M110 2524 c0 -59 24 -55 28 4 2 33 0 42 -12 42 -12 0 -16 -11 -16
-46z"/>
<path d="M4263 2550 c-9 -13 -9 -21 -2 -26 12 -7 51 25 43 37 -9 15 -29 10
-41 -11z"/>
<path d="M852 2418 c3 -7 13 -15 22 -16 12 -3 17 1 14 10 -3 7 -13 15 -22 16
-12 3 -17 -1 -14 -10z"/>
<path d="M115 2298 c-13 -39 -8 -78 10 -78 11 0 15 11 15 39 0 39 -16 65 -25
39z"/>
<path d="M4026 2271 c-3 -5 -3 -23 0 -39 5 -26 9 -29 23 -20 24 15 24 68 0 68
-10 0 -20 -4 -23 -9z"/>
<path d="M990 2252 c0 -23 45 -66 59 -58 13 9 -13 52 -40 67 -15 8 -19 6 -19
-9z"/>
<path d="M4100 2210 c0 -8 -9 -24 -21 -36 l-21 -22 46 -59 c25 -32 46 -65 46
-73 0 -27 -145 -160 -174 -160 -3 0 -22 14 -42 32 l-36 32 -19 -25 c-10 -13
-19 -27 -19 -31 0 -3 37 -25 82 -48 l83 -42 40 49 c22 26 73 83 113 125 l73
78 -30 44 c-17 25 -31 48 -31 53 -1 20 -90 103 -90 83z"/>
<path d="M1080 2181 c0 -12 29 -35 36 -28 11 10 -5 37 -21 37 -8 0 -15 -4 -15
-9z"/>
<path d="M5345 2178 c-233 -20 -490 -106 -662 -220 -63 -42 -203 -151 -203
-159 0 -6 57 -59 352 -322 l187 -167 57 36 c97 62 233 106 364 116 l35 3 16
80 c26 124 79 383 96 460 31 145 33 159 26 166 -13 12 -170 16 -268 7z"/>
<path d="M5871 2003 c-89 -423 -121 -579 -121 -592 0 -6 26 -24 58 -40 79 -41
167 -114 224 -189 l48 -63 0 465 0 464 -74 31 c-112 47 -108 49 -135 -76z"/>
<path d="M3635 2053 c-44 -33 -213 -139 -252 -158 -1 -1 22 -77 53 -170 41
-127 53 -175 46 -190 -6 -12 -44 -35 -100 -58 -107 -45 -119 -43 -158 36 -25
49 -102 188 -130 233 l-13 21 -82 -23 c-45 -13 -121 -31 -169 -40 -48 -9 -93
-19 -99 -24 -9 -5 -14 -60 -18 -179 -8 -217 -3 -209 -136 -212 -74 -2 -101 1
-111 12 -12 13 -19 49 -57 290 l-11 76 -107 7 c-58 4 -122 11 -141 15 -19 5
-56 12 -81 15 -45 7 -46 6 -56 -26 -6 -18 -34 -89 -62 -156 -28 -68 -51 -132
-51 -142 0 -13 11 -19 39 -24 40 -6 101 -61 101 -91 0 -18 70 -75 93 -75 10 0
31 -7 48 -15 16 -9 34 -13 40 -9 6 4 28 1 50 -6 27 -9 41 -21 48 -41 8 -23 16
-29 40 -29 19 0 43 -11 63 -28 43 -36 105 -56 138 -44 33 12 87 -2 119 -31 32
-31 93 -48 142 -41 44 7 100 -9 124 -36 28 -31 79 -36 104 -11 12 12 27 21 35
21 21 0 76 74 76 102 0 35 39 90 76 108 36 17 84 81 84 113 0 33 37 88 68 99
34 13 82 78 82 110 0 33 46 97 75 104 29 7 75 71 75 105 0 14 5 30 11 36 8 8
8 17 -1 32 -9 19 -7 30 16 69 53 92 72 112 110 112 19 0 34 5 34 12 0 6 10 22
22 36 l23 23 -22 17 c-11 9 -43 36 -70 59 l-49 41 -59 -45z"/>
<path d="M110 1995 c0 -33 4 -45 15 -45 11 0 15 12 15 45 0 33 -4 45 -15 45
-11 0 -15 -12 -15 -45z"/>
<path d="M1357 1942 c-28 -29 -27 -42 3 -42 21 0 76 -58 85 -90 9 -32 64 -90
85 -90 29 0 99 -58 106 -87 7 -29 22 -53 33 -53 6 0 45 185 46 214 0 11 -5 13
-119 66 -50 22 -115 56 -147 75 -31 19 -59 35 -61 35 -2 0 -16 -13 -31 -28z"/>
<path d="M3832 1937 c-23 -25 -30 -61 -10 -55 6 2 21 16 32 31 27 37 9 57 -22
24z"/>
<path d="M1346 1861 c-6 -10 38 -61 53 -61 21 0 20 19 -4 44 -25 27 -40 32
-49 17z"/>
<path d="M108 1748 c-6 -34 2 -58 18 -58 10 0 14 12 14 40 0 44 -25 58 -32 18z"/>
<path d="M0 1707 c0 -19 60 -41 74 -27 14 14 -1 26 -41 35 -26 5 -33 3 -33 -8z"/>
<path d="M3654 1689 c-8 -14 11 -33 25 -25 11 7 4 36 -9 36 -5 0 -12 -5 -16
-11z"/>
<path d="M1530 1671 c0 -5 14 -21 31 -36 41 -34 65 -18 29 20 -23 24 -60 34
-60 16z"/>
<path d="M0 1309 l0 -345 40 -23 40 -22 0 28 c0 16 7 38 15 49 19 25 19 114 0
140 -19 25 -19 103 0 128 19 26 19 115 0 140 -19 25 -19 93 0 126 8 14 14 46
15 72 l0 46 -55 4 -55 3 0 -346z"/>
<path d="M3690 1645 c-7 -8 -18 -15 -25 -15 -22 0 -72 -73 -78 -114 -6 -39
-49 -96 -73 -96 -19 0 -74 -75 -74 -101 0 -35 -35 -87 -74 -110 -41 -24 -86
-86 -86 -119 0 -31 -43 -86 -73 -94 -25 -6 -77 -74 -77 -101 0 -9 16 -23 35
-31 20 -8 38 -21 41 -28 7 -19 87 -40 129 -33 45 7 92 -6 124 -36 36 -33 102
-51 134 -36 19 8 34 9 57 1 38 -14 37 -17 44 115 5 91 4 102 -11 107 -143 41
-284 90 -293 102 -10 11 -9 32 6 100 23 107 30 111 141 96 43 -6 110 -14 149
-18 l70 -6 34 93 c18 52 46 121 62 153 15 32 27 60 26 62 -16 15 -164 124
-169 124 -4 0 -12 -7 -19 -15z"/>
<path d="M140 1602 c0 -27 7 -63 15 -78 19 -37 19 -81 0 -118 -8 -15 -15 -50
-15 -76 0 -26 7 -61 15 -76 19 -37 19 -71 0 -108 -20 -37 -20 -36 14 -30 26 6
33 1 58 -35 31 -44 45 -48 90 -26 28 14 29 16 23 70 -7 64 0 74 55 78 37 2 38
1 56 -53 10 -30 19 -56 19 -57 0 -6 66 -2 77 5 6 4 17 30 24 57 7 28 16 53 21
56 5 3 26 3 46 0 l37 -6 5 -65 c5 -58 7 -65 30 -71 48 -13 58 -9 87 36 15 24
35 44 43 45 16 0 80 -36 80 -45 0 -4 -9 -27 -21 -52 -24 -52 -21 -63 19 -92
l29 -20 47 36 47 37 37 -37 36 -37 -43 -44 -44 -44 23 -37 c21 -33 26 -36 54
-30 92 19 93 19 110 -13 24 -47 20 -57 -31 -83 -27 -13 -51 -28 -54 -32 -3 -5
-1 -26 5 -48 l10 -39 52 0 c62 0 77 -14 72 -67 l-3 -38 -60 -10 -60 -10 -3
-46 c-3 -41 -1 -47 20 -53 13 -3 25 -6 28 -6 3 0 4 20 2 44 l-4 45 44 11 c84
21 89 26 86 72 -3 40 -5 43 -55 63 -28 11 -55 23 -58 27 -10 10 14 88 28 89
17 2 16 2 72 -5 l50 -7 18 43 19 43 -46 38 c-25 22 -46 44 -46 51 0 6 12 27
28 45 l27 32 56 -30 56 -30 33 34 33 34 -31 51 c-18 28 -32 54 -32 58 0 4 18
20 41 35 l40 29 43 -48 44 -47 38 15 c42 17 46 32 31 110 -7 31 -5 37 13 43
53 17 -19 43 -84 31 -38 -7 -97 12 -131 44 -28 25 -94 42 -131 31 -35 -10 -87
6 -118 36 -29 28 -88 43 -145 36 -50 -6 -107 14 -117 41 -8 20 -87 39 -127 32
-47 -9 -93 3 -121 30 -30 31 -104 54 -135 42 -35 -13 -89 1 -125 31 -42 36
-105 55 -141 41 -35 -13 -84 1 -118 35 -13 14 -38 28 -56 31 l-31 7 0 -51z"/>
<path d="M250 1636 c0 -13 48 -36 76 -36 27 0 14 28 -17 39 -43 15 -59 14 -59
-3z"/>
<path d="M514 1569 c-8 -14 26 -38 53 -39 25 0 39 15 23 25 -24 15 -70 23 -76
14z"/>
<path d="M4240 1514 c-95 -151 -163 -320 -201 -499 -22 -106 -36 -392 -20
-415 8 -11 28 -14 82 -13 72 2 119 -12 136 -40 10 -17 67 -37 105 -37 17 0
112 27 213 60 l183 61 4 127 c4 118 7 134 42 222 20 52 39 102 42 110 3 10
-65 77 -203 200 -114 102 -233 209 -264 238 -31 28 -61 52 -67 52 -5 0 -29
-30 -52 -66z"/>
<path d="M3521 1504 c-24 -31 -27 -54 -7 -54 18 0 46 38 46 62 0 26 -15 22
-39 -8z"/>
<path d="M110 1465 c0 -33 4 -45 15 -45 11 0 15 12 15 45 0 33 -4 45 -15 45
-11 0 -15 -12 -15 -45z"/>
<path d="M770 1486 c0 -14 29 -26 68 -26 27 0 29 16 3 30 -28 15 -71 13 -71
-4z"/>
<path d="M1025 1420 c-6 -10 23 -25 60 -32 29 -5 29 21 0 32 -33 13 -52 13
-60 0z"/>
<path d="M1280 1351 c0 -15 24 -29 54 -33 37 -4 44 15 11 30 -31 14 -65 16
-65 3z"/>
<path d="M1930 1320 c0 -15 50 -60 66 -60 22 0 16 19 -12 45 -28 26 -54 33
-54 15z"/>
<path d="M3371 1294 c-25 -31 -27 -57 -5 -52 23 5 51 55 37 69 -7 7 -16 3 -32
-17z"/>
<path d="M1540 1271 c0 -14 58 -34 77 -26 17 6 17 7 -1 21 -22 15 -76 19 -76
5z"/>
<path d="M112 1198 c2 -24 8 -43 13 -43 6 0 11 19 13 43 3 33 0 42 -13 42 -13
0 -16 -9 -13 -42z"/>
<path d="M1806 1195 c7 -18 47 -30 71 -20 17 6 17 7 -1 21 -27 20 -77 19 -70
-1z"/>
<path d="M2070 1180 c0 -5 5 -10 11 -10 5 0 7 5 4 10 -3 6 -8 10 -11 10 -2 0
-4 -4 -4 -10z"/>
<path d="M2160 1135 c12 -13 27 -22 33 -18 6 4 1 14 -12 25 -34 26 -48 22 -21
-7z"/>
<path d="M1830 1137 c0 -29 23 -47 60 -47 29 0 42 5 50 19 18 36 12 41 -50 38
-33 -1 -60 -6 -60 -10z"/>
<path d="M2070 1125 c0 -13 36 -35 56 -35 13 0 1 31 -15 40 -27 14 -41 13 -41
-5z"/>
<path d="M3211 1074 c-25 -31 -26 -44 -7 -44 15 0 56 45 56 61 0 18 -29 8 -49
-17z"/>
<path d="M2310 1061 c0 -14 23 -28 58 -36 26 -5 32 -3 32 9 0 17 -37 36 -71
36 -10 0 -19 -4 -19 -9z"/>
<path d="M5362 1036 c-144 -47 -242 -209 -214 -351 23 -112 78 -187 174 -234
53 -27 72 -31 143 -31 67 0 90 4 131 25 117 60 184 166 184 291 0 111 -76 233
-176 283 -60 30 -177 38 -242 17z"/>
<path d="M2290 1010 c0 -5 5 -10 11 -10 5 0 7 5 4 10 -3 6 -8 10 -11 10 -2 0
-4 -4 -4 -10z"/>
<path d="M2344 989 c-10 -17 13 -36 27 -22 12 12 4 33 -11 33 -5 0 -12 -5 -16
-11z"/>
<path d="M2577 993 c-13 -12 -7 -21 23 -33 30 -13 60 -8 60 9 0 9 -9 13 -61
27 -8 2 -18 1 -22 -3z"/>
<path d="M107 958 c-7 -27 -3 -32 18 -25 19 8 20 47 1 47 -7 0 -16 -10 -19
-22z"/>
<path d="M2511 940 c-11 -16 -21 -32 -21 -35 0 -14 47 -44 69 -45 36 0 92 -39
107 -76 15 -36 62 -68 112 -78 19 -3 45 -15 59 -26 l26 -21 27 26 c14 14 31
25 37 25 7 0 28 20 48 44 27 33 36 52 33 73 -3 27 -5 28 -63 29 -97 1 -103 3
-137 32 -42 36 -107 56 -141 43 -28 -11 -75 -1 -112 23 -21 14 -24 13 -44 -14z"/>
<path d="M402 937 c-28 -9 -32 -14 -26 -31 3 -12 9 -42 11 -67 4 -41 8 -47 37
-57 21 -8 40 -26 55 -52 19 -35 27 -40 57 -40 24 0 36 5 40 18 14 42 28 61 59
78 29 15 32 22 31 58 0 23 3 51 7 63 7 19 4 25 -18 33 -34 13 -210 11 -253 -3z"/>
<path d="M2834 918 c-10 -15 9 -28 49 -35 23 -3 37 -2 37 5 0 21 -75 48 -86
30z"/>
<path d="M721 881 c-25 -46 -5 -72 35 -46 17 11 24 24 22 38 -4 30 -43 35 -57
8z"/>
<path d="M282 878 c-17 -17 -15 -24 10 -48 31 -28 48 -25 48 8 0 29 -16 52
-35 52 -6 0 -16 -5 -23 -12z"/>
<path d="M2045 866 c-46 -46 -45 -107 3 -151 51 -48 133 -25 162 45 37 89 -96
175 -165 106z"/>
<path d="M3070 880 c0 -5 7 -7 15 -4 8 4 15 8 15 10 0 2 -7 4 -15 4 -8 0 -15
-4 -15 -10z"/>
<path d="M2460 870 c0 -14 43 -80 53 -80 18 0 18 32 1 51 -25 27 -54 43 -54
29z"/>
<path d="M1674 826 c-40 -40 -44 -75 -15 -122 42 -69 143 -63 177 9 21 44 13
81 -28 119 -43 40 -89 39 -134 -6z"/>
<path d="M816 826 c-9 -14 -30 -33 -46 -41 -27 -14 -30 -20 -30 -64 0 -34 -6
-56 -21 -75 l-21 -26 22 -35 c19 -30 24 -33 42 -24 25 13 75 5 99 -17 17 -15
20 -14 48 5 16 12 41 21 54 21 35 0 38 9 21 61 -23 66 -68 139 -112 182 l-39
38 -17 -25z"/>
<path d="M3112 833 c4 -21 45 -30 61 -14 7 7 2 13 -17 21 -38 14 -48 13 -44
-7z"/>
<path d="M3036 831 c-4 -5 -2 -12 3 -15 5 -4 12 -2 15 3 4 5 2 12 -3 15 -5 4
-12 2 -15 -3z"/>
<path d="M180 793 c-21 -26 -29 -45 -25 -58 16 -54 16 -84 1 -119 -22 -53 -20
-73 8 -91 22 -15 26 -14 62 10 30 21 46 25 74 20 34 -6 37 -4 54 32 12 25 14
39 7 41 -19 6 -41 59 -41 95 0 29 -5 37 -31 47 -17 7 -37 24 -46 37 -20 31
-26 29 -63 -14z"/>
<path d="M2560 820 c0 -5 4 -10 9 -10 6 0 13 5 16 10 3 6 -1 10 -9 10 -9 0
-16 -4 -16 -10z"/>
<path d="M0 801 c0 -25 6 -27 13 -6 4 8 2 17 -3 20 -6 4 -10 -3 -10 -14z"/>
<path d="M3049 784 c-36 -19 -79 -77 -79 -107 0 -13 -11 -41 -25 -60 l-24 -37
22 -11 c12 -7 35 -14 51 -16 41 -4 93 -39 107 -72 15 -33 90 -84 112 -75 23 9
95 -33 112 -65 18 -36 73 -71 110 -71 37 0 98 -36 118 -70 20 -33 92 -73 117
-65 27 9 82 -18 113 -55 15 -18 31 -30 34 -27 3 4 -8 44 -25 89 -17 46 -37
107 -43 137 l-11 54 -168 -7 c-132 -6 -170 -4 -176 6 -11 17 -34 177 -28 193
5 12 51 26 224 67 99 24 116 39 55 49 -20 3 -48 17 -63 32 -34 32 -92 48 -146
41 -45 -7 -91 9 -139 48 -22 18 -41 22 -105 24 -42 0 -86 4 -97 7 -11 3 -32
-1 -46 -9z"/>
<path d="M3340 770 c0 -14 35 -30 64 -30 31 0 34 15 7 30 -25 13 -71 13 -71 0z"/>
<path d="M376 743 c-13 -13 -5 -50 14 -68 23 -21 50 -14 50 13 0 26 -50 69
-64 55z"/>
<path d="M645 734 c-18 -18 -17 -65 1 -71 19 -6 44 27 44 58 0 33 -19 38 -45
13z"/>
<path d="M2635 716 c-11 -7 -32 -20 -47 -29 -25 -16 -26 -17 -13 -59 l12 -43
66 -3 66 -3 7 -45 c5 -37 10 -44 23 -38 9 3 23 8 31 11 8 2 25 18 38 36 21 29
21 33 6 42 -35 21 -84 68 -84 81 0 14 -60 64 -76 63 -5 0 -18 -6 -29 -13z"/>
<path d="M112 686 c-12 -28 -5 -69 12 -63 13 4 21 87 8 87 -5 0 -14 -11 -20
-24z"/>
<path d="M3607 703 c-14 -13 -6 -22 28 -33 34 -11 55 -7 55 10 0 4 -14 13 -31
19 -37 13 -43 13 -52 4z"/>
<path d="M2776 673 c-12 -12 -6 -22 30 -43 36 -23 51 -22 41 4 -7 18 -62 48
-71 39z"/>
<path d="M2896 654 c-14 -20 -16 -28 -6 -37 9 -9 16 -6 31 12 10 13 19 29 19
37 0 22 -23 16 -44 -12z"/>
<path d="M76 588 c-9 -35 -8 -38 14 -38 20 0 25 15 14 44 -9 23 -21 20 -28 -6z"/>
<path d="M503 599 c-49 -14 -83 -62 -83 -116 0 -38 5 -50 34 -79 28 -28 42
-34 76 -34 91 0 143 65 120 150 -17 62 -82 97 -147 79z"/>
<path d="M2262 565 c-75 -63 -36 -175 63 -175 130 0 138 179 8 197 -32 4 -45
0 -71 -22z"/>
<path d="M1890 558 c-74 -50 -74 -155 0 -204 56 -37 112 -30 157 20 27 29 33
44 33 81 0 98 -110 157 -190 103z"/>
<path d="M2841 528 c-17 -23 -31 -52 -31 -65 0 -24 -55 -93 -74 -93 -7 0 -21
-9 -32 -21 -15 -16 -16 -22 -5 -29 10 -6 12 -20 7 -54 -7 -44 -9 -46 -40 -46
-21 0 -40 -8 -52 -21 -10 -12 -35 -28 -54 -37 l-35 -14 50 -44 49 -44 -22 -30
-23 -30 633 0 c558 0 630 2 612 15 -10 8 -39 15 -64 15 -49 0 -102 26 -119 59
-17 30 -81 65 -116 63 -36 -3 -95 32 -109 64 -13 29 -87 74 -122 74 -39 0 -89
32 -108 69 -18 34 -73 71 -106 71 -34 0 -108 46 -116 73 -8 27 -53 66 -76 67
-9 0 -30 -19 -47 -42z"/>
<path d="M4023 538 c3 -13 9 -44 12 -71 4 -26 11 -50 16 -53 14 -9 240 66 233
78 -4 6 -26 8 -58 4 -59 -8 -95 3 -138 39 -39 33 -72 34 -65 3z"/>
<path d="M4120 550 c0 -11 42 -30 66 -30 19 0 18 26 -2 34 -25 10 -64 7 -64
-4z"/>
<path d="M762 508 c-31 -31 12 -65 56 -45 27 13 28 33 3 47 -26 13 -44 13 -59
-2z"/>
<path d="M937 514 c-23 -24 17 -60 54 -49 33 11 21 49 -16 53 -17 2 -34 0 -38
-4z"/>
<path d="M1519 491 c-42 -42 -41 -102 2 -142 35 -33 74 -37 119 -14 91 47 53
185 -50 185 -33 0 -48 -6 -71 -29z"/>
<path d="M2990 511 c0 -12 54 -51 69 -51 19 0 12 28 -11 44 -25 18 -58 21 -58
7z"/>
<path d="M252 494 c-18 -13 -21 -19 -11 -30 16 -19 63 -18 80 2 11 14 10 18
-6 30 -24 18 -35 18 -63 -2z"/>
<path d="M70 468 l0 -33 20 25 c25 32 25 40 0 40 -16 0 -20 -7 -20 -32z"/>
<path d="M2747 458 c-29 -29 -36 -58 -13 -58 18 0 48 47 44 68 -3 14 -8 13
-31 -10z"/>
<path d="M2642 460 c-41 -10 -39 -7 -43 -59 -4 -41 -2 -45 24 -54 35 -11 67
13 67 52 0 15 7 37 16 49 14 21 14 22 -8 21 -13 -1 -38 -5 -56 -9z"/>
<path d="M839 423 c-37 -19 -51 -22 -73 -13 -24 9 -28 7 -46 -23 -25 -40 -25
-43 0 -60 24 -16 41 -67 33 -96 -4 -14 3 -24 26 -35 17 -9 40 -26 51 -38 l20
-22 25 24 c49 46 125 189 125 236 0 6 -20 17 -44 23 -25 6 -48 15 -51 21 -8
13 -11 12 -66 -17z"/>
<path d="M177 423 c-3 -5 -8 -24 -12 -43 -4 -19 -13 -44 -20 -55 -16 -25 -12
-78 8 -108 8 -12 31 -40 50 -62 l36 -40 29 31 c16 18 38 35 50 38 19 6 21 12
16 50 -5 36 -2 47 21 74 26 31 26 32 9 61 -16 27 -22 29 -70 28 -37 -1 -59 4
-72 16 -20 18 -38 22 -45 10z"/>
<path d="M123 393 c-18 -7 -16 -33 2 -33 8 0 15 9 15 20 0 11 -1 20 -2 19 -2
0 -9 -3 -15 -6z"/>
<path d="M3215 371 c-7 -12 43 -51 66 -51 29 0 23 18 -13 40 -37 22 -44 24
-53 11z"/>
<path d="M4765 345 c-5 -2 -145 -47 -310 -101 -165 -53 -304 -100 -308 -104
-4 -3 6 -33 23 -64 16 -32 27 -62 24 -67 -3 -5 200 -9 493 -9 l498 0 2 30 c2
27 -4 32 -70 67 -54 27 -98 63 -175 140 -78 77 -111 103 -135 107 -18 3 -36 3
-42 1z"/>
<path d="M101 314 c0 -11 3 -14 6 -6 3 7 2 16 -1 19 -3 4 -6 -2 -5 -13z"/>
<path d="M1238 313 c6 -12 5 -31 -3 -53 -13 -37 -21 -40 -105 -29 -32 4 -36 1
-55 -34 l-20 -38 43 -35 c23 -20 42 -40 42 -46 0 -6 -11 -26 -26 -45 l-25 -33
182 0 c100 0 179 3 176 7 -4 3 -2 12 4 19 7 9 6 21 -5 42 -27 51 -39 56 -92
33 -25 -12 -52 -21 -59 -21 -11 0 -55 69 -55 85 0 3 25 21 55 40 30 20 55 38
55 42 0 3 -5 23 -12 44 -11 38 -12 39 -60 39 -43 0 -48 -2 -40 -17z"/>
<path d="M640 295 c-11 -13 -10 -21 7 -43 22 -30 56 -36 61 -11 3 16 -33 69
-48 69 -4 0 -13 -7 -20 -15z"/>
<path d="M401 291 c-14 -9 -20 -65 -9 -77 12 -11 48 17 54 41 10 39 -12 57
-45 36z"/>
<path d="M500 263 c0 -30 -38 -82 -64 -89 -21 -5 -24 -12 -29 -67 -2 -34 0
-66 5 -72 14 -15 175 -19 236 -5 53 12 53 12 46 43 -4 18 -7 46 -6 62 1 26 -4
33 -41 50 -32 15 -45 29 -53 55 -10 32 -15 35 -53 38 -34 3 -41 0 -41 -15z"/>
<path d="M2134 251 c-57 -25 -83 -112 -46 -157 38 -45 82 -55 132 -29 36 19
52 47 52 93 0 63 -80 117 -138 93z"/>
<path d="M3445 229 c-4 -6 -5 -12 -4 -13 27 -20 56 -36 66 -36 24 0 13 29 -17
45 -35 18 -37 18 -45 4z"/>
<path d="M2555 220 c-9 -15 3 -30 20 -24 23 9 27 34 5 34 -10 0 -22 -4 -25
-10z"/>
<path d="M1744 202 c-53 -43 -59 -106 -13 -151 78 -78 206 4 164 105 -7 17
-23 39 -36 48 -30 21 -88 20 -115 -2z"/>
<path d="M0 136 c0 -58 0 -59 20 -41 25 22 25 27 0 67 l-20 33 0 -59z"/>
<path d="M5857 127 c-41 -26 -46 -32 -31 -40 10 -6 52 -10 95 -11 l78 -1 -22
23 c-12 13 -33 32 -47 41 -24 17 -26 17 -73 -12z"/>
<path d="M740 121 c0 -34 12 -45 40 -36 26 8 26 41 1 55 -32 16 -41 12 -41
-19z"/>
<path d="M317 122 c-23 -25 -21 -39 4 -53 26 -13 39 1 39 44 0 32 -19 36 -43
9z"/>
<path d="M3675 100 c-7 -11 54 -52 69 -47 22 7 15 27 -13 41 -35 19 -47 20
-56 6z"/>
<path d="M5725 55 c-104 -30 -132 -36 -205 -44 -59 -7 -24 -9 163 -10 l237 -1
-22 22 c-20 21 -87 49 -113 47 -5 0 -32 -7 -60 -14z"/>
<path d="M942 30 l-32 -30 80 0 c44 0 80 2 80 4 0 4 -86 56 -92 56 -2 0 -18
-14 -36 -30z"/>
<path d="M5920 45 c0 -8 11 -17 25 -21 14 -3 22 -10 19 -15 -3 -5 8 -9 25 -9
27 0 29 2 22 22 -12 32 -91 52 -91 23z"/>
<path d="M115 10 c-30 -8 -30 -8 8 -9 23 -1 36 3 32 9 -3 6 -7 9 -8 9 -1 -1
-15 -5 -32 -9z"/>
<path d="M2445 10 c-4 -6 9 -10 32 -10 28 0 34 3 23 10 -20 13 -47 13 -55 0z"/>
<path d="M503 3 c15 -2 39 -2 55 0 15 2 2 4 -28 4 -30 0 -43 -2 -27 -4z"/>
<path d="M1793 3 c9 -2 23 -2 30 0 6 3 -1 5 -18 5 -16 0 -22 -2 -12 -5z"/>
</g>
</svg>
